:SAMPLES-PER-SECOND 30
:FULLY-SPECIFIED
:DEGREES
114
root  0.2422577753 39.84644432 6.027222055 5.62600708 -15.19500732 -0.4750061035
lowerback  15.87180042 4.02177 -3.169780016
upperback  4.799200058 4.586030006 -3.023000002
thorax  -3.756500006 2.25177002 -2.258769989
lowerneck  -5.356100082 9.253789902 -4.230919838
upperneck  22.19980049 13.11950016 0.7036399841
head  7.382080078 5.940070152 1.904299974
lclavicle  0 -9.442270133e-015 7.951389973e-016
lhumerus  -5.335939884 2.071909904 67.88569641
lradius  2.855072702e-031 -2.077836352e-031 143.9539948
lwrist  -7.062250077e-031 8.827812596e-032 20.34740067
lhand  -1.496451383e-031 -27.76390076 20.11240005
lfingers  90 7.125020027 -90
lthumb  89.89689403 5.08795885 91.16245106
rclavicle  0 -9.442270133e-015 7.951389973e-016
rhumerus  -11.99160004 9.46105957 -69.7562027
rradius  -7.871824215e-032 3.442264933e-031 102.8809967
rwrist  1.059337512e-030 -0 -4.225090027
rhand  -7.920061211e-032 -33.2840004 9.303460121
rfingers  -90 -7.125020027 -90
rthumb  -92.93752616 -24.25625642 -97.11982154
rfemur  -16.77249908 16.18020058 7.533110142
rtibia  -0 0 50.26179886
rfoot  -0 -15.84570026 -6.899750233
rtoes  5.373923086 19.29304026 -105.8922705
lfemur  -34.84790039 2.252019882 -8.777629852
ltibia  -0 0 64.00469971
lfoot  -0 4.134009838 -13.2414999
ltoes  -4.250644065 -19.5611806 -102.515957
115
root  0.2829155584 39.62355486 6.040799899 5.520996094 -15.77799988 -0.7200012207
lowerback  15.27019978 3.759249926 -2.905179977
upperback  4.693250179 4.327899933 -2.763700008
thorax  -3.553030014 2.125849962 -2.04618001
lowerneck  -5.290820122 9.193059921 -4.340139866
upperneck  22.44379997 13.0248003 0.8377850056
head  7.435790062 5.889009953 1.961349964
lclavicle  0 -9.442270133e-015 7.951389973e-016
lhumerus  -5.265649796 2.059629917 67.28679657
lradius  2.827445864e-031 -2.115276323e-031 143.1990051
lwrist  -7.062250077e-031 -8.827812596e-032 19.9340992
lhand  -1.496451383e-031 -27.76390076 20.11240005
lfingers  90 7.125020027 -90
lthumb  89.89689403 5.08795885 91.16245106
rclavicle  0 -9.442270133e-015 7.951389973e-016
rhumerus  -12.60519981 9.556460381 -70.16249847
rradius  -8.278000276e-032 3.432723576e-031 103.5579987
rwrist  7.062250077e-031 -1.765562519e-031 -4.487830162
rhand  -7.920061211e-032 -33.2840004 9.303460121
rfingers  -90 -7.125020027 -90
rthumb  -92.93752616 -24.25625642 -97.11982154
rfemur  -15.6267004 16.73419952 8.433520317
rtibia  -0 0 49.94430161
rfoot  -0 -19.1814003 -8.144390106
rtoes  5.373923086 19.29304026 -105.8922705
lfemur  -33.09049988 1.848629951 -8.667849541
ltibia  -0 0 63.25630188
lfoot  -0 -0.1168339998 -15.0145998
ltoes  -4.250644065 -19.5611806 -102.515957
116
root  0.3070466631 39.40110995 6.054511033 5.608001709 -16.24000549 -0.8309936523
lowerback  14.62040043 3.518150091 -2.733570099
upperback  4.42580986 4.073480129 -2.600980043
thorax  -3.490849972 2.002939939 -1.89289999
lowerneck  -5.235660076 9.067170143 -4.526340008
upperneck  22.7215004 12.7968998 1.238369942
head  7.480209827 5.792349815 2.106090069
lclavicle  0 -9.442270133e-015 7.951389973e-016
lhumerus  -5.389239788 1.963660002 66.70929718
lradius  2.80499023e-031 -2.144964765e-031 142.5950012
lwrist  0 -0 19.59700012
lhand  -1.496451383e-031 -27.76390076 20.11240005
lfingers  90 7.125020027 -90
lthumb  89.89689403 5.08795885 91.16245106
rclavicle  0 -9.442270133e-015 7.951389973e-016
rhumerus  -13.29170036 9.714030266 -70.53679657
rradius  -8.772597816e-032 3.420418003e-031 104.3850021
rwrist  7.062250077e-031 -1.765562519e-031 -5.050519943
rhand  -7.920061211e-032 -33.2840004 9.303460121
rfingers  -90 -7.125020027 -90
rthumb  -92.93752616 -24.25625642 -97.11982154
rfemur  -14.75349998 16.81649971 9.14068985
rtibia  -0 0 49.64649963
rfoot  -0 -21.47430038 -13.49849987
rtoes  5.373923086 19.29304026 -105.8922705
lfemur  -31.47559929 1.41226995 -8.661979675
ltibia  -0 0 61.90230179
lfoot  -0 -5.143060207 -15.08430004
ltoes  -4.250644065 -19.5611806 -102.515957
117
root  0.3414800083 39.1731112 6.055222158 5.830001831 -16.57499695 -0.7259979248
lowerback  14.05669975 3.256079912 -2.68937993
upperback  3.98774004 3.759619951 -2.48958993
thorax  -3.656749964 1.851719975 -1.728800058
lowerneck  -5.124820232 8.936010361 -4.639500141
upperneck  23.03560066 12.58040047 1.494869947
head  7.543809891 5.693099976 2.194950104
lclavicle  0 -9.442270133e-015 7.951389973e-016
lhumerus  -5.883190155 1.801229954 66.2888031
lradius  2.788133089e-031 -2.166831307e-031 142.1470032
lwrist  0 -0 19.30730057
lhand  -1.496451383e-031 -27.76390076 20.11240005
lfingers  90 7.125020027 -90
lthumb  89.89689403 5.08795885 91.16245106
rclavicle  0 -9.442270133e-015 7.951389973e-016
rhumerus  -14.34090042 9.890330315 -70.81159973
rradius  -9.413950381e-032 3.40332476e-031 105.461998
rwrist  7.062250077e-031 -1.765562519e-031 -5.381559849
rhand  -7.920061211e-032 -33.2840004 9.303460121
rfingers  -90 -7.125020027 -90
rthumb  -92.93752616 -24.25625642 -97.11982154
rfemur  -14.2979002 16.54840088 9.420220375
rtibia  -0 0 49.354599
rfoot  -0 -22.21220016 -18.67819977
rtoes  5.373923086 19.29304026 -105.8922705
lfemur  -30.16749954 0.8119770288 -8.869870186
ltibia  -0 0 60.24769974
lfoot  -0 -9.600330353 -14.38230038
ltoes  -4.250644065 -19.5611806 -102.515957
118
root  0.4155622223 38.98000041 6.069333159 6.160995483 -16.16600037 -0.5489959717
lowerback  12.99769974 2.598579884 -2.1473701
upperback  3.875230074 3.017090082 -2.497309923
thorax  -3.179019928 1.487640023 -1.862830043
lowerneck  -5.173980236 8.826490402 -4.678420067
upperneck  22.96559906 12.44519997 1.425709963
head  7.535990238 5.619659901 2.170419931
lclavicle  0 -9.442270133e-015 7.951389973e-016
lhumerus  -5.941840172 2.069730043 65.88580322
lradius  2.772098382e-031 -2.187307614e-031 141.7250061
lwrist  -1.412450015e-030 1.765562519e-031 19.13850021
lhand  -1.496451383e-031 -27.76390076 20.11240005
lfingers  90 7.125020027 -90
lthumb  89.89689403 5.08795885 91.16245106
rclavicle  0 -9.442270133e-015 7.951389973e-016
rhumerus  -14.97070026 9.871399879 -71.22850037
rradius  -1.013171245e-031 3.382651041e-031 106.6740036
rwrist  7.062250077e-031 -0 -5.318759918
rhand  -7.920061211e-032 -33.2840004 9.303460121
rfingers  -90 -7.125020027 -90
rthumb  -92.93752616 -24.25625642 -97.11982154
rfemur  -13.90649986 15.65670013 9.568289757
rtibia  -0 0 49.03699875
rfoot  -0 -25.66580009 -19.31819916
rtoes  5.373923086 19.29304026 -105.8922705
lfemur  -29.37649918 -0.4589209855 -9.178899765
ltibia  -0 0 58.56159973
lfoot  -0 -12.7986002 -12.97430038
ltoes  -4.250644065 -19.5611806 -102.515957
119
root  0.4698733176 38.84399895 6.076733146 6.552993774 -16.39199829 -0.2890014648
lowerback  12.20680046 2.314640045 -2.10939002
upperback  3.56069994 2.677930117 -2.422529936
thorax  -3.084840059 1.322250009 -1.726390004
lowerneck  -5.112020016 8.600939751 -4.819059849
upperneck  22.78210068 12.17160034 1.272079945
head  7.475259781 5.470839977 2.11552
lclavicle  0 -9.442270133e-015 7.951389973e-016
lhumerus  -6.181779861 2.017879963 65.89289856
lradius  2.757992194e-031 -2.205067594e-031 141.3569946
lwrist  -7.062250077e-031 -0 18.85040092
lhand  -1.496451383e-031 -27.76390076 20.11240005
lfingers  90 7.125020027 -90
lthumb  89.89689403 5.08795885 91.16245106
rclavicle  0 -9.442270133e-015 7.951389973e-016
rhumerus  -15.67409992 9.933259964 -71.46199799
rradius  -1.083965627e-031 3.360634249e-031 107.8769989
rwrist  1.412450015e-030 -0 -5.538219929
rhand  -7.920061211e-032 -33.2840004 9.303460121
rfingers  -90 -7.125020027 -90
rthumb  -92.93752616 -24.25625642 -97.11982154
rfemur  -14.06729984 15.26259995 9.352860451
rtibia  -0 0 48.78390121
rfoot  -0 -28.5739994 -18.72780037
rtoes  5.373923086 19.29304026 -105.8922705
lfemur  -28.64220047 -1.073269963 -9.682299614
ltibia  -0 0 57.01210022
lfoot  -0 -14.93789959 -14.94950008
ltoes  -4.250644065 -19.5611806 -102.515957
120
root  0.5278777888 38.74711164 6.061355711 6.802001953 -16.56500244 0.07299804688
lowerback  11.85820007 2.085429907 -2.232769966
upperback  3.240339994 2.373209953 -2.297940016
thorax  -3.243340015 1.173760056 -1.476889968
lowerneck  -5.120480061 8.326950073 -5.039080143
upperneck  22.49650002 11.86620045 1.007799983
head  7.397799969 5.294300079 2.036720037
lclavicle  0 -9.442270133e-015 7.951389973e-016
lhumerus  -6.585569859 1.919440031 66.22609711
lradius  2.753753664e-031 -2.210358522e-031 141.246994
lwrist  -7.062250077e-031 8.827812596e-032 18.82819939
lhand  -1.496451383e-031 -27.76390076 20.11240005
lfingers  90 7.125020027 -90
lthumb  89.89689403 5.08795885 91.16245106
rclavicle  0 -9.442270133e-015 7.951389973e-016
rhumerus  -16.40600014 10.19279957 -71.48370361
rradius  -1.159464754e-031 3.335338892e-031 109.1689987
rwrist  7.062250077e-031 -0 -5.863059998
rhand  -7.920061211e-032 -33.2840004 9.303460121
rfingers  -90 -7.125020027 -90
rthumb  -92.93752616 -24.25625642 -97.11982154
rfemur  -14.45650005 14.97649956 8.907139778
rtibia  -0 0 48.72029877
rfoot  -0 -29.63319969 -18.95560074
rtoes  5.373923086 19.29304026 -105.8922705
lfemur  -28.15859985 -1.945690036 -10.25860023
ltibia  -0 0 55.75220108
lfoot  -0 -16.6583004 -14.69410038
ltoes  -4.250644065 -19.5611806 -102.515957
121
root  0.584384447 38.69933481 6.012844476 6.895996094 -16.8500061 0.3470001221
lowerback  11.84809971 1.955860019 -2.282480001
upperback  3.073509932 2.196810007 -2.196310043
thorax  -3.419349909 1.087870002 -1.321349978
lowerneck  -5.28346014 7.991660118 -5.375170231
upperneck  22.04019928 11.46959972 0.8659790158
head  7.278820038 5.082300186 2.010710001
lclavicle  0 -9.442270133e-015 7.951389973e-016
lhumerus  -6.707399845 1.794399977 66.82109833
lradius  2.7546023e-031 -2.20930084e-031 141.2689972
lwrist  -7.062250077e-031 -0 18.91670036
lhand  -1.496451383e-031 -27.76390076 20.11240005
lfingers  90 7.125020027 -90
lthumb  89.89689403 5.08795885 91.16245106
rclavicle  0 -9.442270133e-015 7.951389973e-016
rhumerus  -17.1420002 10.23060036 -71.49069977
rradius  -1.242108474e-031 3.305451645e-031 110.5950012
rwrist  7.062250077e-031 1.765562519e-031 -5.947130203
rhand  -7.920061211e-032 -33.2840004 9.303460121
rfingers  -90 -7.125020027 -90
rthumb  -92.93752616 -24.25625642 -97.11982154
rfemur  -15.03750038 14.93999958 8.435930252
rtibia  -0 0 49.02819824
rfoot  -0 -29.4197998 -19.68810081
rtoes  5.373923086 19.29304026 -105.8922705
lfemur  -27.8192997 -2.813270092 -10.72329998
ltibia  -0 0 54.82849884
lfoot  -0 -18.23180008 -12.64869976
ltoes  -4.250644065 -19.5611806 -102.515957
122
root  0.6394489074 38.71155686 5.920199897 6.809005737 -16.93400574 0.6620025635
lowerback  12.20930004 1.842370033 -2.343050003
upperback  3.095510006 2.026799917 -2.1433599
thorax  -3.598890066 1.004009962 -1.219580054
lowerneck  -5.661399841 7.579629898 -5.65610981
upperneck  21.45509911 10.96660042 0.7606629729
head  7.160550117 4.83081007 1.987890005
lclavicle  0 -9.442270133e-015 7.951389973e-016
lhumerus  -6.396230221 1.434440017 67.6536026
lradius  2.748228817e-031 -2.217224032e-031 141.1040039
lwrist  -7.062250077e-031 -0 18.59370041
lhand  -1.496451383e-031 -27.76390076 20.11240005
lfingers  90 7.125020027 -90
lthumb  89.89689403 5.08795885 91.16245106
rclavicle  0 -9.442270133e-015 7.951389973e-016
rhumerus  -17.75180054 10.01220036 -71.50050354
rradius  -1.323811085e-031 3.27358645e-031 112.0179977
rwrist  7.062250077e-031 -3.531125038e-031 -5.883810043
rhand  -7.920061211e-032 -33.2840004 9.303460121
rfingers  -90 -7.125020027 -90
rthumb  -92.93752616 -24.25625642 -97.11982154
rfemur  -15.69250011 14.86260033 7.902400017
rtibia  -0 0 49.77880096
rfoot  -0 -28.90299988 -19.61750031
rtoes  5.373923086 19.29304026 -105.8922705
lfemur  -27.61590004 -3.697570086 -11.2258997
ltibia  -0 0 54.1955986
lfoot  -0 -19.21279907 -11.14319992
ltoes  -4.250644065 -19.5611806 -102.515957
